<?xml version="1.0"?>
<svg xmlns="http://www.w3.org/2000/svg" id="Outline" viewBox="0 0 512 512" width="512" height="512"><path d="M400,80a32,32,0,1,0-32-32A32.036,32.036,0,0,0,400,80Zm0-48a16,16,0,1,1-16,16A16.019,16.019,0,0,1,400,32Z"/><path d="M320,48a48,48,0,1,0,48,48A48.054,48.054,0,0,0,320,48Zm0,80a32,32,0,1,1,32-32A32.036,32.036,0,0,1,320,128Z"/><path d="M83.26,206.765A111.959,111.959,0,0,0,56,280V488a8,8,0,0,0,8,8H400a56.063,56.063,0,0,0,56-56V376a56.063,56.063,0,0,0-56-56H280V280a112.15,112.15,0,0,0-70.161-103.933A24.009,24.009,0,0,0,192,136V112h56a8,8,0,0,0,8-8V72a8,8,0,0,0-8-8H136a8,8,0,0,0-8,8v32a8,8,0,0,0,8,8h8v24a23.987,23.987,0,0,0-17.79,40.091A112.255,112.255,0,0,0,83.26,206.765ZM72,400H200v40H72Zm0,80V456H202.328a55.63,55.63,0,0,0,14.4,24ZM400,336a40.045,40.045,0,0,1,40,40v64a40.045,40.045,0,0,1-40,40H256a39.99,39.99,0,0,1-40-40V376a40.045,40.045,0,0,1,40-40ZM224,80h16V96H224Zm-80,0h64V96H144Zm32,32v24H160V112Zm-37.674,42.347A7.987,7.987,0,0,1,144,152h48a8,8,0,1,1,0,16H144a8.009,8.009,0,0,1-5.674-13.653Zm14.9,30.788a97.068,97.068,0,0,1,29.554,0A96.014,96.014,0,0,1,264,280v40h-8a56.063,56.063,0,0,0-56,56v8H72V280a96.011,96.011,0,0,1,81.227-94.865Z"/><path d="M400,184a32,32,0,1,0-32-32A32.036,32.036,0,0,0,400,184Zm0-48a16,16,0,1,1-16,16A16.019,16.019,0,0,1,400,136Z"/><path d="M352,448H256a8.009,8.009,0,0,1-8-8V392a8,8,0,0,0-16,0v48a24.028,24.028,0,0,0,24,24h96a8,8,0,0,0,0-16Z"/><circle cx="384" cy="456" r="8"/><path d="M304,368h96a8.009,8.009,0,0,1,8,8v48a8,8,0,0,0,16,0V376a24.028,24.028,0,0,0-24-24H304a8,8,0,0,0,0,16Z"/><circle cx="272" cy="360" r="8"/></svg>
